<svg xmlns="http://www.w3.org/2000/svg" xml:space="preserve" id="Capa_1" x="0" y="0" style="enable-background:new 0 0 241.6 485" version="1.1" viewBox="0 0 241.6 485"><style>.st0{fill:#ebbc03}.st1{fill:#d51c27}.st2{fill:#fff}.st3{fill:#43b5e5}.st4{fill:#293634}</style><path d="m184.4 485-64.3-23.8L57.2 485V78.1l62.6 23.7 64.6-23.7V485M23.6 0l-5.5 17.2H0l14.7 10.5L9 44.9l14.7-10.6 14.6 10.6-5.6-17.2 14.6-10.6h-18L23.6 0M88.1 0l-5.5 17.2H64.5l14.7 10.5-5.7 17.2 14.7-10.6 14.6 10.6-5.6-17.2 14.6-10.6h-18L88.1 0M152.9 0l-5.5 17.2h-18.1L144 27.7l-5.7 17.2 14.8-10.6 14.5 10.6-5.5-17.2 14.5-10.6h-18L152.9 0M217.9 0l-5.5 17.2h-18.1L209 27.7l-5.7 17.2L218 34.3l14.6 10.6-5.5-17.2 14.5-10.6h-18L217.9 0" class="st0"/><path d="M142.2 175.2h18.2l-26.7-46.7H108l-26.8 46.7h18.3s1.2-4 2.9-8.4h36.9c1.7 4.5 2.9 8.4 2.9 8.4m-21.5-39.7.2-.3.1.3s9 13.1 13.5 20.8h-27.3c4.5-7.7 13.5-20.8 13.5-20.8zM141 194.4v36.1h-40.4v-36.1H81.7v33.1c0 5.8 9.9 13.5 17.8 13.5h42.7c7.9 0 17.8-7.6 17.8-13.5v-33.1h-19M159.1 270.3v-10.5H82.5V307h18.9v-17.1h57.7v-10.5h-57.7v-9.1h57.7" class="st1"/><path d="M23 152s7-2.5 7-10-6.9-13.9-6.9-13.9H23s-6.9 6.5-6.9 13.9c0 7.5 7 10 7 10H23M25.8 178.1s6.5 3.7 12.2-1.2c5.7-4.9 6.1-14.3 6.1-14.3l-.1-.1s-9.4-1.1-15.1 3.8c-5.6 4.9-3 11.9-3.1 11.8M20.7 177.7s-6.4 3.9-12.2-.7c-5.9-4.7-6.6-14.1-6.6-14.1l.1-.1s9.4-1.4 15.2 3.3c5.9 4.7 3.5 11.7 3.5 11.6M25.7 208.9s6.5 3.7 12.2-1.2c5.7-4.9 6.1-14.3 6.1-14.3l-.1-.1s-9.4-1.1-15.1 3.8c-5.7 4.9-3 11.9-3.1 11.8M20.6 208.6s-6.4 3.9-12.2-.7c-5.9-4.7-6.6-14.1-6.6-14.1l.1-.1s9.4-1.4 15.2 3.3c5.8 4.6 3.4 11.7 3.5 11.6M25.7 239.7s6.5 3.7 12.2-1.2c5.7-4.9 6.1-14.3 6.1-14.3l-.1-.1s-9.4-1.1-15.1 3.8c-5.7 4.9-3 11.9-3.1 11.8M20.6 239.4s-6.4 3.9-12.2-.7c-5.9-4.7-6.6-14.1-6.6-14.1l.1-.1s9.4-1.4 15.2 3.3c5.8 4.6 3.4 11.7 3.5 11.6M25.7 270.5s6.5 3.7 12.2-1.2C43.6 264.4 44 255 44 255l-.1-.1s-9.4-1.1-15.1 3.8c-5.7 4.9-3 11.9-3.1 11.8M20.6 270.2s-6.4 3.9-12.2-.7c-5.9-4.7-6.6-14.1-6.6-14.1l.1-.1s9.4-1.4 15.2 3.3c5.8 4.6 3.4 11.7 3.5 11.6M25.7 301.4s6.5 3.7 12.2-1.2c5.7-4.9 6.1-14.3 6.1-14.3l-.1-.1s-9.4-1.1-15.1 3.8c-5.7 4.9-3 11.9-3.1 11.8M20.6 301.1s-6.4 3.9-12.2-.7c-5.9-4.7-6.6-14.1-6.6-14.1l.1-.1s9.4-1.4 15.2 3.3c5.8 4.6 3.4 11.7 3.5 11.6" class="st0"/><path d="M21.7 149.6h2.6v190.2h-2.6zM218.7 152s7-2.5 7-10-6.9-13.9-6.9-13.9h-.1s-6.9 6.5-6.9 13.9c0 7.5 7 10 7 10h-.1M221.6 178.1s6.5 3.7 12.2-1.2c5.7-4.9 6.1-14.3 6.1-14.3l-.1-.1s-9.4-1.1-15.1 3.8c-5.7 4.9-3.1 11.9-3.1 11.8M216.5 177.7s-6.4 3.9-12.2-.7c-5.9-4.7-6.6-14.1-6.6-14.1l.1-.1s9.4-1.4 15.2 3.3c5.8 4.7 3.4 11.7 3.5 11.6M221.4 208.9s6.5 3.7 12.2-1.2c5.7-4.9 6.1-14.3 6.1-14.3l-.1-.1s-9.4-1.1-15.1 3.8c-5.6 4.9-3 11.9-3.1 11.8M216.3 208.6s-6.4 3.9-12.2-.7c-5.9-4.7-6.6-14.1-6.6-14.1l.1-.1s9.4-1.4 15.2 3.3c5.8 4.6 3.4 11.7 3.5 11.6M221.4 239.7s6.5 3.7 12.2-1.2c5.7-4.9 6.1-14.3 6.1-14.3l-.1-.1s-9.4-1.1-15.1 3.8c-5.6 4.9-3 11.9-3.1 11.8M216.3 239.4s-6.4 3.9-12.2-.7c-5.9-4.7-6.6-14.1-6.6-14.1l.1-.1s9.4-1.4 15.2 3.3c5.8 4.6 3.4 11.7 3.5 11.6M221.4 270.5s6.5 3.7 12.2-1.2c5.7-4.9 6.1-14.3 6.1-14.3l-.1-.1s-9.4-1.1-15.1 3.8c-5.6 4.9-3 11.9-3.1 11.8M216.3 270.2s-6.4 3.9-12.2-.7c-5.9-4.7-6.6-14.1-6.6-14.1l.1-.1s9.4-1.4 15.2 3.3c5.8 4.6 3.4 11.7 3.5 11.6M221.4 301.4s6.5 3.7 12.2-1.2c5.7-4.9 6.1-14.3 6.1-14.3l-.1-.1s-9.4-1.1-15.1 3.8c-5.6 4.9-3 11.9-3.1 11.8M216.3 301.1s-6.4 3.9-12.2-.7c-5.9-4.7-6.6-14.1-6.6-14.1l.1-.1s9.4-1.4 15.2 3.3c5.8 4.6 3.4 11.7 3.5 11.6" class="st0"/><path d="M217.4 149.6h2.6v190.2h-2.6z" class="st0"/><path d="M1.8 340.9h238.1v86.8H1.8z" class="st2"/><path d="M1.8 350.6h238.1v9.5H1.8zM1.8 370h238.1v9.5H1.8zM1.8 389.4h238.1v9.5H1.8zM1.8 408.7h238.1v9.5H1.8z" class="st3"/><path d="M65.8 384.7h.5-.5c0-30.1 24.4-54.4 54.5-54.5 30.1.1 54.4 24.4 54.5 54.5 0 30.1-24.4 54.4-54.5 54.5-30.1-.1-54.5-24.4-54.5-54.5" class="st2"/><path d="M120.3 441.7c-30.6-.1-55.6-24.3-57-54.5h-.1v-5.1h.1c1.4-30.2 26.4-54.4 57-54.5 31.4 0 57 25.6 57 57-.1 31.5-25.6 57.1-57 57.1m-52-57c0 28.6 23.3 51.9 51.9 51.9 28.6-.1 51.9-23.3 51.9-51.9 0-28.6-23.3-51.9-51.9-51.9-28.5 0-51.8 23.3-51.9 51.9z" class="st4"/><path d="M120.3 330.2c-30.1 0-54.5 24.4-54.5 54.5s24.4 54.5 54.5 54.5 54.5-24.4 54.5-54.5c-.1-30.1-24.5-54.5-54.5-54.5m10.7 96.1L115 414l1.9-12.2 20.1-10.1 13.1 6.5-1.9 19c-4.9 4.3-10.8 7.5-17.2 9.1zm-48.9-20.8 1.4-16.3 14.9-3 16.6 15.6-1.9 12.2-18.2 5.8c-5.2-3.8-9.6-8.6-12.8-14.3zm37.9-64.4c7.2 0 14 1.8 20 4.9l4.7 12.3-10.6 8.9-23.6-3.7-5.2-10.3 9.7-11.8c1.6-.2 3.3-.3 5-.3zm43.2 46.5-11.9 9.2-13.2-6.6-2.9-21.5 10.6-8.8 15.3 10.3c1.5 4.4 2.4 9.2 2.4 14.2-.2 1.1-.2 2.2-.3 3.2zm-80-.2-6.1-9.3c1-6.6 3.4-12.6 7-17.9l19.7-5.9 4.7 9.4-10.6 20.7-14.7 3zm-.6-28.4c-3.6 5.2-6 11.2-7.2 17.6L68 378c1.3-10.1 5.4-19.3 11.6-26.8l3 7.8zm82.5 28.6c.1-1.1.1-2.1.1-3.2 0-4.8-.8-9.4-2.1-13.7l6.7-3.7c2 5.5 3.1 11.5 3.1 17.7 0 3.5-.4 6.9-1 10.2l-6.8-7.3zm-18.5-48.4-6.7 4.7c-6-3-12.8-4.6-19.9-4.6-1.6 0-3.2.1-4.8.2l-6.4-6.1c3.7-.8 7.5-1.3 11.5-1.3 9.6 0 18.6 2.6 26.3 7.1zm-72.9 70 7.9-1c3 4.9 7 9.2 11.6 12.6l.3 9.2c-8.4-5-15.3-12.2-19.8-20.8zm54.4 27.5 3.7-8.7c6.4-1.7 12.2-4.9 17.2-9l8.8 2.4c-7.7 8-18.1 13.6-29.7 15.3z" class="st4"/></svg>